<svg xmlns="http://www.w3.org/2000/svg" viewBox="0 0 24 24" aria-hidden="true">
  <path fill="currentColor" d="M20.52 3.48A11.82 11.82 0 0 0 12.12 0C5.57 0 .23 5.34.23 11.9c0 2.1.55 4.15 1.6 5.95L.12 24l6.3-1.65a11.86 11.86 0 0 0 5.69 1.45h.01c6.55 0 11.89-5.34 11.89-11.9 0-3.18-1.24-6.16-3.49-8.42ZM12.12 21.8h-.01a9.87 9.87 0 0 1-5.03-1.38l-.36-.21-3.74.98.99-3.65-.23-.37a9.85 9.85 0 0 1-1.52-5.27c0-5.45 4.44-9.89 9.9-9.89 2.64 0 5.12 1.03 6.99 2.9a9.83 9.83 0 0 1 2.9 6.99c0 5.46-4.44 9.9-9.89 9.9Zm5.42-7.4c-.3-.15-1.76-.87-2.03-.97-.27-.1-.47-.15-.67.15-.2.3-.77.97-.94 1.17-.17.2-.35.22-.64.07-.3-.15-1.25-.46-2.39-1.48-.88-.79-1.48-1.76-1.65-2.06-.17-.3-.02-.46.13-.61.13-.13.3-.35.45-.52.15-.17.2-.3.3-.5.1-.2.05-.37-.03-.52-.07-.15-.67-1.61-.92-2.21-.24-.58-.49-.5-.67-.51l-.57-.01c-.2 0-.52.07-.79.37-.27.3-1.04 1.02-1.04 2.48 0 1.46 1.07 2.88 1.21 3.07.15.2 2.1 3.2 5.08 4.49.71.31 1.26.49 1.69.63.71.23 1.36.19 1.87.12.57-.09 1.76-.72 2.01-1.41.25-.69.25-1.29.17-1.41-.07-.13-.27-.2-.57-.35Z"/>
</svg>
